<svg width="350" height="350" viewBox="0 0 350 350" fill="none" xmlns="http://www.w3.org/2000/svg">
<path d="M315.595 76.9748L190.476 5.03773C185.803 2.3459 180.574 1 175.357 1C170.141 1 164.912 2.3459 160.238 5.03773L35.1189 76.9748C25.7596 82.3459 20 92.2956 20 103.063V246.937C20 257.704 25.7596 267.629 35.1189 273.025L160.238 344.962C164.912 347.641 170.128 349 175.357 349C180.574 349 185.803 347.654 190.476 344.962L315.595 273.025C324.955 267.641 330.714 257.704 330.714 246.937V103.063C330.714 92.2956 324.955 82.3585 315.595 76.9748Z" fill="#DAE4FC"/>
<mask id="mask0_5074_27240" style="mask-type:alpha" maskUnits="userSpaceOnUse" x="20" y="1" width="311" height="348">
<path d="M315.595 76.9748L190.476 5.03773C185.803 2.3459 180.574 1 175.357 1C170.141 1 164.912 2.3459 160.238 5.03773L35.1189 76.9748C25.7596 82.3459 20 92.2956 20 103.063V246.937C20 257.704 25.7596 267.629 35.1189 273.025L160.238 344.962C164.912 347.641 170.128 349 175.357 349C180.574 349 185.803 347.654 190.476 344.962L315.595 273.025C324.955 267.641 330.714 257.704 330.714 246.937V103.063C330.714 92.2956 324.955 82.3585 315.595 76.9748Z" fill="#DAE4FC"/>
</mask>
<g mask="url(#mask0_5074_27240)">
<path d="M298.516 351H52C52 351 55.3085 299.189 60.0231 283.424C64.7377 267.675 74.4812 261.075 87.1031 257.849C99.7084 254.607 149.468 239.123 149.468 239.123L175.109 237.072L175.258 237.055L175.407 237.072L198.533 238.925C198.533 238.925 250.791 254.607 263.396 257.849C276.018 261.092 285.761 267.675 290.476 283.424C295.191 299.172 298.516 351 298.516 351Z" fill="#297DC0"/>
<path d="M173.769 276.625C175.377 276.625 176.681 275.321 176.681 273.713C176.681 272.106 175.377 270.802 173.769 270.802C172.161 270.802 170.858 272.106 170.858 273.713C170.858 275.321 172.161 276.625 173.769 276.625Z" fill="#F9B642"/>
<path d="M173.769 292.042C175.377 292.042 176.681 290.739 176.681 289.131C176.681 287.523 175.377 286.219 173.769 286.219C172.161 286.219 170.858 287.523 170.858 289.131C170.858 290.739 172.161 292.042 173.769 292.042Z" fill="#F9B642"/>
<path d="M173.769 307.46C175.377 307.46 176.681 306.157 176.681 304.549C176.681 302.941 175.377 301.637 173.769 301.637C172.161 301.637 170.858 302.941 170.858 304.549C170.858 306.157 172.161 307.46 173.769 307.46Z" fill="#F9B642"/>
<path d="M175.406 237.055V237.072L175.257 237.055H175.406Z" fill="#5D46C2"/>
<path d="M175.257 237.055L175.108 237.072V237.055H175.257Z" fill="#5D46C2"/>
<path d="M197.143 244.881C197.143 244.881 190.758 256.824 172.925 256.824C155.688 256.824 148.426 244.285 148.426 244.285L149.484 235.7L149.666 234.26L151.321 220.729L193.967 221.92L194.678 227.065L194.91 228.752L197.143 244.881Z" fill="#F8BE9D"/>
<path d="M150.642 234.574C150.642 234.574 135.44 237.139 124.224 246.899C124.224 246.899 127.516 266.104 149.418 285.095L173.918 257.138C173.901 257.155 157.524 250.935 150.642 234.574Z" fill="#106299"/>
<path d="M196.548 234.574C196.548 234.574 211.751 237.139 222.967 246.899C222.967 246.899 219.675 266.104 197.772 285.095L173.29 257.138C173.29 257.155 189.667 250.935 196.548 234.574Z" fill="#106299"/>
<g opacity="0.5">
<path opacity="0.5" d="M195.654 222.432C185.994 230.621 170.361 233.731 150.477 231.067L150.659 229.628L152.313 216.096L194.96 217.287L195.654 222.432Z" fill="#F8BE9D"/>
</g>
<path d="M136.283 180.894C126.739 194.211 106.209 185.212 107.599 167.544C108.873 151.515 126.772 154.062 126.772 154.062L136.283 180.894Z" fill="#E8AA8B"/>
<path d="M206.904 180.894C216.449 194.211 236.978 185.212 235.588 167.544C234.315 151.515 216.416 154.062 216.416 154.062L206.904 180.894Z" fill="#E8AA8B"/>
<path d="M122.984 134.592C122.984 134.592 118.319 163.475 130.395 191.729C141.33 217.337 155.887 225.31 171.388 225.558C189.005 225.84 225.895 215.65 220.055 132.061C216.118 75.5681 127.649 77.5697 122.984 134.592Z" fill="#F8BE9D"/>
<path d="M222.139 155.336C222.139 155.336 222.982 176.245 216.779 202.432C206.837 244.4 172.726 238.809 172.726 238.809C172.726 238.809 139.277 244.4 129.335 202.432C123.132 176.245 120.452 156.709 120.452 156.709L128.293 146.336C128.293 146.336 132.115 182.498 145.961 188.768C145.961 188.768 152.114 179.405 172.726 188.156C193.338 179.405 200.17 188.768 200.17 188.768C214.016 182.498 215.191 147.693 215.191 147.693L222.139 155.336Z" fill="#19274B"/>
<path d="M133.422 117.073C133.422 117.073 136.714 138.76 127.516 146.684V164.583L122.107 166.204C122.107 166.204 117.393 142.284 115.589 128.984C112.099 103.194 136.301 99.9187 136.301 99.9187L133.422 117.073Z" fill="#19274B"/>
<path d="M209.269 117.073C209.269 117.073 205.977 138.76 215.175 146.684V164.583L220.584 166.204C220.584 166.204 225.299 142.284 227.102 128.984C230.592 103.194 206.391 99.9187 206.391 99.9187L209.269 117.073Z" fill="#19274B"/>
<path d="M118.981 115.684C118.981 115.684 102.785 87.0816 141.147 76.6103C167.897 69.315 204.108 76.9907 215.688 58C215.688 58 218.93 70.9858 212.528 79.3232C212.528 79.3232 229.98 74.0958 234.827 63.8064C234.827 63.8064 240.832 79.9022 231.535 92.309C231.535 92.309 238.715 94.6415 245.1 89.5961C245.1 89.5961 244.505 124.683 218.533 122.747C218.533 122.747 213.041 118.578 203.546 115.684C194.05 112.772 186.341 127.412 161.61 121.209C139.559 115.684 130.478 112.193 118.981 115.684Z" fill="#19274B"/>
<path d="M196.051 148.471C195.803 148.405 195.572 148.289 195.39 148.074C191.75 144.153 185.249 144.236 185.183 144.219C184.439 144.236 183.843 143.64 183.827 142.912C183.81 142.168 184.405 141.573 185.133 141.556C185.448 141.556 192.908 141.473 197.342 146.254C197.838 146.8 197.805 147.644 197.276 148.14C196.928 148.471 196.465 148.57 196.051 148.471Z" fill="#0E3944"/>
<path d="M145.829 147.792C145.597 147.743 145.382 147.627 145.2 147.445C144.671 146.932 144.671 146.089 145.184 145.559C149.75 140.894 157.21 141.175 157.525 141.192C158.236 141.242 158.831 141.854 158.798 142.582C158.765 143.309 158.137 143.888 157.409 143.855C157.343 143.855 150.825 143.624 147.103 147.429C146.755 147.776 146.276 147.908 145.829 147.792Z" fill="#0E3944"/>
<path d="M193.851 162.631C193.802 165.94 192.28 168.603 190.443 168.586C188.607 168.57 187.152 165.857 187.185 162.548C187.234 159.24 188.756 156.577 190.592 156.593C192.429 156.61 193.884 159.306 193.851 162.631Z" fill="#1B4850"/>
<path d="M156.862 161.82C156.812 165.129 155.29 167.792 153.454 167.776C151.618 167.759 150.162 165.046 150.195 161.738C150.228 158.429 151.767 155.766 153.603 155.782C155.456 155.799 156.912 158.512 156.862 161.82Z" fill="#1B4850"/>
<path d="M161.147 194.31C161.147 194.31 177.723 196.858 186.325 192.507C186.325 192.507 181.329 204.748 172.264 203.508C163.231 202.3 161.147 194.31 161.147 194.31Z" fill="#FDFFFF"/>
<g opacity="0.5">
<g opacity="0.5">
<g opacity="0.5">
<path opacity="0.5" d="M175.77 166.998C175.29 170.737 177.143 172.325 179.542 174.624C180.567 175.617 181.279 176.659 181.444 178.115C181.808 181.241 179.476 183.392 176.581 183.805C175.026 184.02 174.844 181.605 176.382 181.39C177.259 180.695 178.136 180 179.012 179.289C178.665 178.363 178.318 177.42 177.97 176.493C177.623 176.014 176.895 175.699 176.465 175.302C175.638 174.558 174.959 173.731 174.414 172.771C173.338 170.819 173.107 168.735 173.388 166.551C173.586 164.996 175.969 165.443 175.77 166.998Z" fill="#CA6279"/>
</g>
</g>
</g>
</g>
</svg>
